<?xml version="1.0" encoding="utf-8"?>
<!-- Generator: Adobe Illustrator 16.0.0, SVG Export Plug-In . SVG Version: 6.00 Build 0)  -->
<!DOCTYPE svg PUBLIC "-//W3C//DTD SVG 1.1//EN" "http://www.w3.org/Graphics/SVG/1.1/DTD/svg11.dtd">
<svg version="1.1" id="Layer_1" xmlns="http://www.w3.org/2000/svg" xmlns:xlink="http://www.w3.org/1999/xlink" x="0px" y="0px"
	 width="480px" height="200px" viewBox="0 0 480 200" enable-background="new 0 0 480 200" xml:space="preserve">
<g>
	<g>
		<path fill="#FF0000" d="M151.283,43.705c6.236,7.867,7.22,17.391,6.68,27.095c-0.107,1.934,2.893,1.923,3,0
			c0.59-10.613-0.797-20.686-7.559-29.216C152.203,40.068,150.094,42.206,151.283,43.705L151.283,43.705z"/>
	</g>
</g>
<g>
	<g>
		<path fill="#FF0000" d="M147.888,42.148c2.369-0.699,4.035-2.316,5.816-3.963c3.785-3.5,10.396-5.411,15.253-3.097
			c5.94,2.831-4.895,13.108-7.319,15.233c0.707,0.707,1.414,1.414,2.121,2.121c9.06-8.778,30.879,8.972,13.483,15.634
			c-6.559,2.512-14.334,1.735-21.212,1.572c-6.887-0.164-16.16-1.332-18.747-8.957c-0.618-1.821-3.516-1.04-2.893,0.798
			c2.864,8.444,12.505,11.083,20.573,11.141c9.468,0.067,20.834,1.557,28.727-4.849c12.969-10.525-11.871-27.325-22.053-17.46
			c-1.402,1.358,0.68,3.385,2.121,2.121c3.613-3.167,13.023-11.914,9.12-17.6c-2.228-3.246-6.375-4.131-10.122-3.609
			c-2.349,0.327-5.574,0.689-7.612,2.025c-2.705,1.773-4.935,5.077-8.056,5.998C145.239,39.802,146.027,42.697,147.888,42.148
			L147.888,42.148z"/>
	</g>
</g>
<g>
	<g>
		<path fill="#FF0000" d="M169.053,77.272c-0.336-13.104,6.372-24.98,9.332-37.465c-0.982-0.133-1.964-0.266-2.946-0.399
			c-0.549,4.742,1.639,10.021,3.48,14.265c2.02,4.656,4.481,10.363,8.913,13.245c0.831,0.541,1.938-0.004,2.203-0.896
			c1.521-5.12,1.908-10.433,3.697-15.478c1.756-4.951,3.426-9.792,4.124-15.019c-1,0-2,0-3,0c0.354,8.338,0.87,16.01,3.381,24.013
			c1.633,5.203,4.029,12.309,9.336,14.823c1.738,0.823,3.262-1.763,1.514-2.591c-4.881-2.312-6.815-9.391-8.299-14.12
			c-2.294-7.311-2.609-14.535-2.932-22.125c-0.084-1.989-2.751-1.866-3,0c-0.658,4.935-2.341,9.561-4.017,14.221
			c-1.811,5.037-2.176,10.358-3.697,15.477c0.734-0.299,1.469-0.598,2.203-0.896c-3.587-2.333-5.633-7.289-7.343-11.03
			c-1.85-4.047-4.091-9.337-3.564-13.889c0.197-1.698-2.563-2.019-2.946-0.399c-3.027,12.771-9.783,24.853-9.439,38.263
			C166.103,79.203,169.103,79.208,169.053,77.272L169.053,77.272z"/>
	</g>
</g>
</svg>
